<svg version="1.2" xmlns="http://www.w3.org/2000/svg" viewBox="0 0 419 89" width="419" height="89"><style>.a{fill:#fed612}.b{fill:#62b5e5}</style><path class="a" d="m108.7 15.4l-0.3 2.1q-0.1 0-0.2-0.1-0.1 0-0.3 0-0.5-0.1-1.2-0.2h-0.1-0.1-0.1l-0.1-0.1h-0.1-0.1-0.1-0.1-0.1-0.1l-0.1-0.1h-0.1-0.1-0.1-0.1l-0.1-0.1h-0.1-0.1-0.1-0.1-0.1-0.1v-0.1h-0.1-0.1-0.1-0.1-0.1-0.1-0.1v-0.1h-0.1-0.1-0.1-0.1-0.1v-0.1h-0.1-0.1-0.1-0.1q-0.7-0.1-1.7-0.3l1.1 20.5-14-0.1 1.6-20.4c-0.1 0.1-0.2 0.1-0.2 0.1l-3.7 0.6q-0.7 0.1-1.2 0.2c-0.2 0-0.3 0-0.4 0.1h-0.1l-0.2-1-2.3-11.1 28.6-0.9z"/><path fill-rule="evenodd" class="a" d="m143.1 4.6l0.1 0.1v0.2c0 0.2 0.1 0.5 0.2 0.9l0.6 3.5 2.1 10.6 2 10.6q0.4 2.1 0.7 3.5v0.4l0.1 0.1v0.2l0.3 1.8-11.3 0.4-0.1-0.4q0-0.1 0-0.2-0.1-0.1-0.2-0.5v-0.2h-0.1v-0.4h-0.1v-0.4h-0.1v-0.3h-0.1v-0.4h-0.1v-0.2l-0.4-1.3-6.7 0.2q-0.2 0.5-0.3 1l-0.3 1.4-0.4 1.5-12-0.4 0.2-1v-0.2l0.2-0.7 0.1-0.4 0.8-3.5 4.6-20.8 0.8-3.4v-0.3l0.1-0.1v-0.4l0.1-0.1v-0.1q0-0.3 0.1-0.4c0.2 0 0.6 0 0.8 0q0.9 0 2.2 0c2-0.1 4.2-0.1 6.5-0.2l6.6-0.1c0.8 0 1.5 0 2.1-0.1h0.9zm-9.9 15.9l-0.5 1.8-1.3 5 3.8-0.2-1.4-4.8v-0.2l-0.1-0.1v-0.3l-0.1-0.1v-0.2h-0.1v-0.4h-0.1v-0.4h-0.1v-0.3h-0.1z"/><path class="a" d="m170 26.4l10.3-2.1 1.2 12.3h-18.7-3.6l-2.9-31.3 13-0.7z"/><path class="a" d="m211.1 21.2c0 0.1 0 0.3 0 0.4q0 0-0.2 0c-0.2 0.1-0.3 0.1-0.6 0.1q-0.9 0.1-2.2 0.2c-2 0.2-3.9 0.4-5.8 0.6l0.4 3.2 13-1.8-0.1 0.9v0.1q-0.1 0.2-0.1 0.4c0 0.4 0 0.8 0 1.3-0.1 1.2-0.2 2.5-0.3 4l-0.3 4c-0.1 0.5-0.1 0.9-0.1 1.3v0.5 0.1l-0.4-0.1-24.2 0.3v-0.4c0-0.2 0-0.6-0.1-0.9l-0.1-3.5-0.4-10.7-0.5-10.6-0.1-3.5v-0.1-0.1-0.1-0.1-0.1-0.1-0.1-0.1l-0.1-0.1v-0.1-0.4l1.8-0.1q0.3 0 1.6-0.1l7.5-0.7 7.4-0.8c0.9 0 1.8-0.1 2.4-0.2 0.3 0 0.5 0 0.7-0.1h0.3q0 0.1 0 0.3 0.2 1.3 0.2 2.6 0.1 0.1 0.1 0.2 0.1 2.1 0.3 4.3 0 0.6 0 1.2l-10.4 0.6 0.4 2.6 6.2-0.5h0.1 0.1v-0.1h0.1 0.1 0.1 0.1 0.1 0.1 0.1 0.1 0.1 0.1 0.1 0.1 0.1v-0.1h0.1 0.1 0.1 0.1 0.1 0.1q0.4-0.1 0.6 0 0.2-0.1 0.2-0.1v0.1h0.1z"/><path class="a" d="m239.9 36.8v-0.1l-5.6-11.4-0.2 11.2h-10.2l-1.2-30.2q6-0.1 12-0.2c0 0 0 0 0.1-0.1v0.1l8.3 13.3 2.4-13.3 11.8-0.1-5.7 30.6-11.6 0.1c0 0 0 0-0.1 0.1z"/><path class="a" d="m290.7 15.4l-0.3 2.1q0 0-0.1-0.1-0.2 0-0.4 0-0.5-0.1-1.2-0.2h-0.1-0.1-0.1l-0.1-0.1h-0.1-0.1-0.1-0.1-0.1-0.1v-0.1h-0.1-0.1-0.1-0.1-0.1v-0.1h-0.1-0.1-0.1-0.1-0.1-0.1-0.1v-0.1h-0.1-0.1-0.1-0.1-0.1-0.1-0.1v-0.1h-0.1-0.1-0.1-0.1-0.1v-0.1h-0.1-0.1-0.1-0.1q-0.6-0.1-1.7-0.3l1.1 20.5-13.9-0.1 1.5-20.4c-0.1 0.1-0.1 0.1-0.2 0.1l-3.7 0.6q-0.7 0.1-1.2 0.2c-0.1 0-0.2 0-0.4 0.1h-0.1l-0.2-1-2.3-11.1 28.6-0.9z"/><path class="b" d="m83.5 85.3l-1.7-32.3h14l-1.8 32.3z"/><path class="b" d="m120 85.2l-5.6-11.4-0.2 11.1-10.2 0.1-1.2-30.2q6-0.1 12-0.2c0 0 0 0 0.1-0.1v0.1l8.3 13.2 2.4-13.2 11.8-0.2-5.7 30.7-11.6 0.1c0 0 0 0-0.1 0z"/><path class="b" d="m161.6 85.2l-5.6-11.4-0.2 11.1-10.2 0.1-1.2-30.2q6-0.1 12-0.2c0 0 0 0 0.1-0.1v0.1l8.3 13.2 2.4-13.2 11.8-0.2-5.7 30.7-11.6 0.1c0 0 0 0-0.1 0z"/><path fill-rule="evenodd" class="b" d="m192.9 84.3q-3.4-1.6-5.4-4.7c-1.2-1.7-1.9-3.8-2.2-6.1q-0.5-3.5 0.3-7.1c0.5-2.4 1.4-4.7 2.6-6.7 1.3-2.1 2.7-3.8 4.5-5.2q3-2.4 6.6-3.1 3.5-0.6 7.5 0.4c4.2 1.2 7.4 3.7 9.8 7.3 2.2 3.5 3.2 7.2 2.9 11.3q-0.5 6.3-5 10.5-5 4.7-13.5 5.2-0.1 0-0.2-0.1-4.6 0-7.9-1.7zm7.2-16.2q-1 1-1 2.4 0 1.4 1 2.4c0.7 0.7 1.5 1.1 2.5 1.1q1.4 0 2.4-1.1 1-1 1-2.4 0-1.4-1-2.4-1-1-2.4-1c-1 0-1.8 0.3-2.5 1z"/><path class="b" d="m243 85.2l-9 0.3-9.5-30.5 14.5-0.8 2.3 15.3 3.4-14.8 12.9-0.2-9.7 30.6z"/><path fill-rule="evenodd" class="b" d="m290.4 53.1l0.1 0.1v0.2c0 0.2 0.1 0.5 0.1 0.9l0.7 3.5 2.1 10.6 2 10.5q0.4 2.1 0.6 3.6v0.1h0.1v0.3l0.1 0.1v0.2l0.3 1.8-11.3 0.4-0.1-0.4q0 0 0-0.1 0 0 0-0.1-0.1-0.1-0.2-0.5v-0.2l-0.1-0.1v-0.3h-0.1v-0.3h-0.1v-0.4h-0.1v-0.2l-0.1-0.1v-0.3l-0.4-1.3-6.8 0.2q-0.1 0.5-0.2 1l-0.4 1.4-0.3 1.5-12-0.4 0.2-1v-0.2l0.2-0.7 0.1-0.4 0.7-3.5 2.4-10.4 2.3-10.4 0.8-3.5v-0.4h0.1v-0.3l0.1-0.1c0-0.2 0-0.4 0-0.5 0.2 0 0.7 0 0.9 0q0.9 0 2.2 0c2-0.1 4.1-0.2 6.5-0.2l6.6-0.1c0.8-0.1 1.5-0.1 2.1-0.1h0.9zm-9.9 15.9l-0.5 1.9-1.3 5 3.7-0.3-1.3-4.7v-0.2l-0.1-0.1v-0.2h-0.1v-0.4h-0.1v-0.3h-0.1v-0.4h-0.1v-0.4h-0.1z"/><path class="b" d="m329.9 63.8l-0.3 2.2q0 0-0.1-0.1-0.1 0-0.4 0-0.5-0.1-1.2-0.2h-0.1-0.1-0.1v-0.1h-0.1-0.1-0.1-0.1-0.1v-0.1h-0.1-0.1-0.1-0.1-0.1-0.1-0.1v-0.1h-0.1-0.1-0.1-0.1-0.1-0.1-0.1v-0.1h-0.1-0.1-0.1-0.1-0.1v-0.1h-0.1-0.1-0.1-0.1-0.1-0.1-0.1v-0.1h-0.1-0.1-0.1q-0.7-0.1-1.8-0.3l1.2 20.4h-14l1.5-20.4c0 0.1-0.1 0.1-0.1 0.1l-3.7 0.6q-0.8 0.1-1.3 0.2c-0.1 0-0.2 0-0.3 0.1h-0.1l-0.2-1-2.4-11.1 28.6-0.9z"/><path fill-rule="evenodd" class="b" d="m345.5 84.3q-3.4-1.6-5.4-4.7c-1.2-1.7-1.9-3.8-2.2-6.1q-0.5-3.5 0.3-7.1c0.5-2.4 1.4-4.7 2.6-6.7 1.3-2.1 2.7-3.8 4.5-5.2q3-2.4 6.6-3.1 3.5-0.6 7.5 0.4c4.2 1.2 7.4 3.7 9.8 7.3 2.2 3.5 3.2 7.2 2.9 11.3q-0.5 6.3-5 10.5-5 4.7-13.4 5.2-0.1 0-0.3-0.1-4.5 0-7.9-1.7zm7.2-16.2q-1 1-1 2.4 0 1.4 1 2.4c0.7 0.7 1.5 1.1 2.5 1.1q1.4 0 2.4-1.1 1-1 1-2.4 0-1.4-1-2.4-1-1-2.4-1c-1 0-1.8 0.3-2.5 1z"/><path fill-rule="evenodd" class="b" d="m405.7 53.9q4.6 2.2 5.7 6.1 0.7 2.7-0.5 5.5-0.8 2.4-3 4.8c-1.2 1.2-2.4 2.3-3.9 3.2l9.6 5.6-13.3 7.2-5.9-7.5q0 3-0.1 5.9l-11.5 0.1-1.8-32 11.5-0.8q0.1-0.1 0.2 0c5.3-0.3 9.6 0.3 13 1.9zm-9.2 7.2q-0.1 2.6 0.2 5.3 2.5 0.1 3.8-0.9 1-0.8 0.9-2.1-0.1-1.2-1.3-2c-0.9-0.5-2-0.7-3.3-0.4h-0.1c0 0.1-0.1 0.1-0.2 0.1z"/><path class="b" d="m26 3.7c-3 8-4.6 19.3-5 30.4 4-0.2 8.1-1.1 11.3-3v12.5c-3.2-1.8-7.4-2.7-11.4-2.9 0 0.2 0 0.3 0 0.5 0 10-0.9 33.2 15.1 33.2 1.5 0 3.1-0.1 4.8-0.5v10c-4.4 1.5-9.2 2.4-13.8 2.4-7.3 0-13.9-2.2-17-7.5-4.1-7.1-1.7-19.6-1.1-36.8-1.5 0.5-2.8 1.1-3.8 1.6v-12.5c1 0.7 2.4 1.2 4 1.7 0-12.1-1.5-20.7-4.7-29.1z"/><path class="b" d="m57.2 86.3v-82.6h3v82.6z"/><g style="opacity:0"><path fill-rule="evenodd" d="m63.5 180.3q0.5 0.6 0.9 1.3 0.5 0.6 0.8 1.3 0.3 0.7 0.5 1.5 0.3 0.7 0.4 1.5 0.1 0.4 0.1 0.7 0 0.4 0 0.8 0.1 0.4 0.1 0.7-0.1 0.4-0.1 0.8 0 0.4-0.1 0.7 0 0.4-0.1 0.8-0.1 0.3-0.2 0.7-0.1 0.4-0.2 0.7-0.2 0.4-0.3 0.7-0.2 0.4-0.4 0.7-0.1 0.4-0.3 0.7-0.2 0.3-0.4 0.6-0.3 0.4-0.5 0.7-0.3 0.3-0.5 0.6-0.3 0.3-0.6 0.5-0.3 0.3-0.6 0.6-0.3 0.2-0.6 0.4-0.3 0.3-0.6 0.5-0.4 0.2-0.7 0.4-0.4 0.2-0.7 0.3-0.4 0.2-0.7 0.3-0.4 0.2-0.7 0.3-0.4 0.1-0.8 0.2-0.3 0.1-0.7 0.1-0.4 0.1-0.8 0.1-0.3 0.1-0.7 0.1-0.4 0-0.8 0-0.3 0-0.7 0-0.4-0.1-0.8-0.1-0.3-0.1-0.7-0.2-0.4 0-0.7-0.2-0.4-0.1-0.7-0.2-0.4-0.1-0.8-0.3-0.3-0.1-0.7-0.3-0.3-0.2-0.6-0.3-0.4-0.2-0.7-0.5-0.6-0.4-1.2-1-0.6-0.5-1.1-1.1-0.5-0.6-0.9-1.3-0.4-0.6-0.8-1.4-0.1-0.3-0.3-0.7-0.1-0.3-0.2-0.7-0.1-0.3-0.2-0.7-0.1-0.4-0.2-0.8 0-0.3-0.1-0.7 0-0.4 0-0.8 0-0.3 0-0.7 0-0.4 0-0.8 0-0.3 0.1-0.7 0.1-0.4 0.1-0.8 0.1-0.3 0.2-0.7 0.1-0.3 0.3-0.7 0.2-0.7 0.6-1.4 0.3-0.7 0.8-1.3 0.4-0.7 0.9-1.2 0.6-0.6 1.2-1.1 0.3-0.2 0.6-0.5 0.3-0.2 0.6-0.4 0.4-0.2 0.7-0.4 0.4-0.2 0.7-0.4 0.4-0.1 0.7-0.3 0.4-0.1 0.7-0.2 0.4-0.1 0.8-0.2 0.4-0.1 0.7-0.2 0.4-0.1 0.8-0.1 0.4 0 0.7-0.1 0.4 0 0.8 0 0.4 0.1 0.7 0.1 0.8 0.1 1.5 0.2 0.8 0.2 1.5 0.4 0.7 0.3 1.4 0.6 0.7 0.4 1.3 0.8 0.3 0.2 0.6 0.5 0.3 0.2 0.6 0.5 0.3 0.2 0.6 0.5 0.3 0.3 0.5 0.6zm-15.8 13.4q0.3 0.3 0.6 0.6 0.4 0.3 0.7 0.6 0.4 0.3 0.7 0.5 0.4 0.3 0.8 0.5 0.4 0.2 0.8 0.3 0.4 0.2 0.8 0.3 0.4 0.1 0.8 0.2 0.5 0.1 0.9 0.1 0.4 0.1 0.9 0 0.4 0 0.8 0 0.4-0.1 0.9-0.1 0.4-0.1 0.8-0.3 0.4-0.1 0.8-0.3 0.4-0.1 0.8-0.3 0.4-0.2 0.8-0.5 0.4-0.3 0.7-0.5 0.3-0.3 0.7-0.6 0.3-0.4 0.6-0.7 0.2-0.4 0.5-0.7 0.2-0.4 0.4-0.8 0.2-0.4 0.4-0.8 0.2-0.4 0.3-0.8 0.1-0.4 0.2-0.9 0.1-0.4 0.1-0.8 0.1-1.3-0.1-2.6-0.3-1.4-1-2.5-0.6-1.2-1.6-2.1-0.9-1-2.1-1.6-0.8-0.4-1.6-0.6-0.9-0.2-1.7-0.3-0.9-0.1-1.7 0-0.9 0.1-1.7 0.4-0.9 0.2-1.7 0.7-0.8 0.4-1.5 1-0.6 0.5-1.2 1.2-0.6 0.7-1 1.5-0.4 0.8-0.6 1.6-0.2 0.9-0.3 1.7-0.1 0.9 0 1.8 0.1 0.8 0.4 1.6 0.1 0.5 0.3 0.9 0.1 0.4 0.4 0.8 0.2 0.4 0.4 0.7 0.3 0.4 0.6 0.8zm14.4-4.6q-0.2 0.3-0.3 0.6-0.1 0.3-0.3 0.6-0.1 0.3-0.3 0.5-0.2 0.3-0.3 0.6-0.2 0.3-0.4 0.5-0.3 0.3-0.5 0.6-0.2 0.2-0.5 0.4-0.2 0.3-0.5 0.5-0.2 0.2-0.5 0.4-0.3 0.2-0.6 0.4-0.3 0.2-0.6 0.3-0.3 0.1-0.6 0.3-0.7 0.2-1.3 0.3-0.7 0-1.3 0-0.7-0.1-1.3-0.3-0.7-0.2-1.2-0.5-0.7-0.4-1.3-0.9-0.6-0.5-1.1-1-0.5-0.6-0.9-1.3-0.3-0.7-0.6-1.4-0.1-0.3-0.2-0.6-0.1-0.4-0.1-0.7 0-0.3-0.1-0.7 0-0.3 0.1-0.6 0-0.4 0.1-0.7 0-0.3 0.1-0.6 0.1-0.3 0.2-0.6 0.2-0.3 0.3-0.6 0.2-0.3 0.4-0.6 0.2-0.3 0.4-0.5 0.2-0.3 0.5-0.6 0.2-0.2 0.5-0.4 0.1-0.1 0.2-0.2 0.2-0.1 0.3-0.2 0.1-0.1 0.3-0.2 0.1-0.1 0.3-0.2 0.1-0.1 0.2-0.2 0.2-0.1 0.3-0.2 0.2 0 0.3-0.1 0.1-0.1 0.3-0.2 0.1 0 0.3-0.1 0.1-0.1 0.3-0.1 0.1-0.1 0.3-0.1 0.1-0.1 0.3-0.1 0.1-0.1 0.3-0.1 0.2-0.1 0.3-0.1 0.2-0.1 0.4-0.1 0.1-0.1 0.3-0.1l2 2.4q-0.2 0-0.4 0-0.2 0-0.4 0.1-0.2 0-0.4 0-0.2 0-0.4 0.1-0.1 0-0.3 0-0.1 0.1-0.3 0.1-0.1 0-0.3 0.1-0.1 0-0.3 0.1-0.1 0-0.3 0.1-0.1 0-0.2 0.1-0.1 0.1-0.3 0.1-0.1 0.1-0.2 0.2-0.1 0-0.2 0.1-0.2 0.1-0.3 0.2-0.1 0.1-0.2 0.2-0.1 0-0.2 0.1-0.2 0.2-0.4 0.3-0.1 0.2-0.3 0.4-0.1 0.2-0.2 0.3-0.2 0.2-0.3 0.4-0.1 0.2-0.1 0.4-0.1 0.2-0.2 0.4 0 0.2-0.1 0.4 0 0.2 0 0.4 0 0.2 0 0.4 0 0.2 0 0.4 0.1 0.2 0.1 0.4 0.1 0.2 0.1 0.4 0.2 0.5 0.5 0.9 0.2 0.4 0.5 0.7 0.3 0.4 0.7 0.7 0.3 0.3 0.7 0.6 0.2 0.1 0.4 0.1 0.2 0.1 0.4 0.2 0.2 0.1 0.4 0.1 0.2 0.1 0.4 0.1 0.2 0 0.4 0 0.2 0 0.4 0 0.2 0 0.4-0.1 0.2 0 0.4-0.1 0.2-0.1 0.4-0.1 0.2-0.1 0.4-0.2 0.2-0.2 0.4-0.3 0.2-0.1 0.4-0.3 0.1-0.1 0.2-0.2 0.1-0.1 0.2-0.2 0.1-0.1 0.2-0.2 0.1-0.1 0.2-0.2 0.1-0.1 0.2-0.2 0.1-0.1 0.1-0.2 0.1-0.1 0.2-0.2 0.1-0.2 0.1-0.3 0.1-0.1 0.2-0.3 0.1-0.1 0.1-0.3 0.1-0.1 0.2-0.2 0-0.2 0.1-0.3 0-0.2 0.1-0.4 0.1-0.2 0.1-0.4 0.1-0.2 0.1-0.3 0.1-0.2 0.1-0.4z"/><path  d="m81 159q-0.7 0.2-1.8 0.6-0.3 0.1-0.6 0.2-0.3 0.1-0.6 0.2-0.3 0.2-0.6 0.3-0.3 0.1-0.6 0.3-0.4 0.1-0.7 0.3-0.4 0.2-0.7 0.3-0.4 0.2-0.7 0.4-0.4 0.2-0.7 0.4-0.4 0.2-0.7 0.4-0.4 0.3-0.7 0.5-0.3 0.3-0.7 0.5-0.3 0.3-0.6 0.5-1.1 0.9-1.8 1.6-0.1 0.2-0.2 0.3-0.2 0.2-0.3 0.3-0.2 0.2-0.3 0.3-0.1 0.2-0.2 0.3-0.1 0.1-0.2 0.2-0.1 0.2-0.2 0.3 0 0.1-0.1 0.2-0.1 0.1-0.1 0.3-0.1 0-0.1 0.1 0 0.1-0.1 0.2 0 0 0 0.1 0 0.1-0.1 0.2 0 0 0 0.1 0 0.1 0 0.1 0 0.1 0 0.1 0 0.1 0 0.2 0.1 0 0.1 0 0 0.1 0 0.1 0 0 0.1 0.1 0 0 0 0.1 0.1 0.1 0.2 0.1 0.1 0.1 0.3 0.2 0.1 0 0.2 0 0.2 0 0.3 0 0.2 0 0.4 0 0.2-0.1 0.4-0.1 0.2-0.1 0.4-0.1 0.1-0.1 0.3-0.2 0.9-0.3 2-0.9l2.2-1.1q1.2-0.7 2.5-1.3 1.3-0.7 2.6-1.2 0.3-0.1 0.7-0.2 0.3-0.2 0.6-0.3 0.3-0.1 0.7-0.1 0.3-0.1 0.6-0.2 0.3-0.1 0.6-0.1 0.3-0.1 0.6-0.1 0.3-0.1 0.7-0.1 0.3 0 0.6 0 0.3 0 0.6 0 0.2 0.1 0.5 0.1 0.3 0.1 0.6 0.2 0.3 0.1 0.5 0.2 0.3 0.1 0.6 0.3 0.2 0.1 0.5 0.3 0.2 0.2 0.4 0.4 0.2 0.2 0.4 0.5 0.3 0.2 0.5 0.5 0.2 0.4 0.4 0.7 0.1 0.3 0.3 0.7 0.1 0.3 0.2 0.7 0.1 0.3 0.1 0.6 0.1 0.3 0.1 0.7 0 0.3 0 0.6 0 0.3-0.1 0.7-0.1 0.3-0.1 0.6-0.1 0.3-0.2 0.7-0.2 0.3-0.3 0.6-0.1 0.3-0.3 0.6-0.2 0.3-0.4 0.6-0.1 0.3-0.4 0.6-0.2 0.3-0.4 0.6-0.2 0.3-0.4 0.6-0.2 0.2-0.5 0.5-0.2 0.3-0.5 0.6-0.2 0.2-0.5 0.5-0.2 0.3-0.5 0.5-1.1 1-2.1 1.9-0.6 0.5-1.3 1-0.6 0.5-1.3 1-0.6 0.4-1.3 0.9-0.7 0.4-1.4 0.8-0.6 0.3-1.2 0.6-0.6 0.3-1.2 0.6-0.7 0.3-1.3 0.6-0.6 0.2-1.2 0.5l-3.7-4.3q0.8-0.2 1.4-0.4 0.7-0.2 1.4-0.4 0.7-0.2 1.3-0.5 0.7-0.3 1.3-0.6 0.8-0.4 1.5-0.8 0.7-0.4 1.3-0.8 0.7-0.5 1.4-1 0.6-0.4 1.2-1 0.4-0.2 0.7-0.5 0.3-0.3 0.6-0.6 0.3-0.2 0.6-0.5 0.2-0.3 0.5-0.6 0.2-0.2 0.4-0.4 0.1-0.2 0.3-0.5 0.1-0.2 0.2-0.4 0.2-0.2 0.3-0.4 0.1-0.2 0.1-0.3 0.1-0.2 0.1-0.3 0-0.2 0.1-0.3 0-0.2 0-0.3 0-0.1-0.1-0.2 0-0.1 0-0.2 0-0.1-0.1-0.2 0-0.1-0.1-0.2-0.1-0.1-0.2-0.2-0.1 0-0.3-0.1-0.1-0.1-0.2-0.1-0.2 0-0.3 0-0.2 0-0.4 0-0.2 0.1-0.4 0.1-0.2 0.1-0.4 0.1-0.2 0.1-0.4 0.2-0.2 0-0.5 0.1-0.2 0.1-0.5 0.3-0.2 0.1-0.5 0.2-0.2 0.1-0.5 0.2-1 0.6-2.2 1.2l-2.5 1.3q-1.3 0.7-2.5 1.2-0.4 0.2-0.7 0.3-0.3 0.1-0.6 0.2-0.3 0.1-0.6 0.2-0.4 0.1-0.7 0.2-0.3 0.1-0.6 0.1-0.3 0.1-0.6 0.1-0.3 0.1-0.6 0.1-0.3 0-0.6 0-0.3 0-0.6 0-0.3 0-0.5-0.1-0.3 0-0.6-0.1-0.2-0.1-0.5-0.2-0.3-0.1-0.5-0.3-0.3-0.1-0.5-0.3-0.3-0.2-0.5-0.4-0.2-0.2-0.4-0.5-0.2-0.2-0.4-0.5-0.2-0.3-0.4-0.6-0.2-0.3-0.3-0.6-0.1-0.3-0.2-0.7-0.1-0.3-0.1-0.6-0.1-0.3-0.1-0.6 0-0.3 0-0.6 0-0.3 0.1-0.6 0-0.3 0.1-0.6 0.1-0.3 0.2-0.6 0.1-0.3 0.2-0.6 0.2-0.3 0.3-0.6 0.2-0.3 0.3-0.6 0.2-0.2 0.4-0.5 0.2-0.3 0.4-0.6 0.2-0.2 0.4-0.5 0.2-0.3 0.4-0.5 0.3-0.3 0.5-0.6 0.2-0.2 0.5-0.5 0.2-0.2 0.4-0.5 1-1 2-1.7 1.1-0.9 2.3-1.7 1.2-0.9 2.4-1.6 1.2-0.7 2.4-1.3c0.8-0.4 1.6-0.7 2.3-1z"/><path  d="m120.8 147.6l-10.6-12.7 3.9 18.3-4.7 3.9-17.3-7 10.6 12.6-4.8 4.1-15.1-18 6.6-5.6 18.7 7.6-4.2-19.7 6.6-5.6 15.1 18z"/><path fill-rule="evenodd" d="m142.8 123.2l-10 8.5 1.2 4.8-5.4 4.5-5.7-25.9 5.4-4.5 24.5 10-5.4 4.6zm-11.2 3.4l6.6-5.5-8.9-3.8z"/><path  d="m161.5 91.4q-0.7 0.2-1.8 0.5-0.3 0.2-0.6 0.3-0.3 0.1-0.6 0.2-0.3 0.1-0.6 0.3-0.3 0.1-0.6 0.2-0.4 0.2-0.7 0.4-0.4 0.2-0.7 0.3-0.3 0.2-0.7 0.4-0.3 0.2-0.6 0.4-0.4 0.2-0.7 0.5-0.4 0.2-0.7 0.4-0.4 0.3-0.7 0.5-0.3 0.3-0.6 0.6-1.1 0.8-1.8 1.5-0.1 0.2-0.3 0.3-0.1 0.2-0.2 0.3-0.2 0.2-0.3 0.3-0.2 0.2-0.3 0.4-0.1 0.1-0.1 0.2-0.1 0.1-0.2 0.2-0.1 0.1-0.1 0.2-0.1 0.1-0.2 0.3 0 0 0 0.1-0.1 0.1-0.1 0.2 0 0.1-0.1 0.1 0 0.1 0 0.2 0 0.1 0 0.1 0 0.1 0 0.1 0 0.1 0 0.2 0 0 0 0.1 0 0 0 0.1 0.1 0 0.1 0 0 0.1 0 0.1 0.1 0 0.1 0.1 0.1 0.1 0.2 0.2 0.1 0 0.2 0.1 0.2 0 0.3 0 0.2 0.1 0.3 0 0.2 0 0.4 0 0.2 0 0.4-0.1 0.1 0 0.3-0.1 0.2-0.1 0.4-0.1 0.9-0.4 2-0.9l2.3-1.2q1.2-0.7 2.5-1.3 1.3-0.7 2.5-1.2 0.4-0.1 0.7-0.2 0.3-0.1 0.6-0.2 0.4-0.1 0.7-0.2 0.3-0.1 0.6-0.2 0.3-0.1 0.6-0.1 0.4-0.1 0.7-0.1 0.3-0.1 0.6-0.1 0.3 0 0.6 0 0.3 0 0.6 0.1 0.3 0 0.5 0.1 0.3 0 0.6 0.1 0.3 0.1 0.5 0.2 0.3 0.1 0.6 0.3 0.2 0.1 0.5 0.3 0.2 0.2 0.4 0.4 0.2 0.2 0.4 0.5 0.3 0.2 0.5 0.6 0.2 0.3 0.4 0.6 0.2 0.3 0.3 0.7 0.1 0.3 0.2 0.7 0.1 0.3 0.2 0.6 0 0.4 0 0.7 0 0.3 0 0.6 0 0.4-0.1 0.7 0 0.3-0.1 0.6-0.1 0.4-0.2 0.7-0.1 0.3-0.3 0.6-0.1 0.3-0.3 0.6-0.1 0.3-0.3 0.6-0.2 0.3-0.4 0.6-0.2 0.3-0.5 0.6-0.2 0.3-0.4 0.6-0.2 0.3-0.5 0.5-0.2 0.3-0.5 0.6-0.2 0.3-0.5 0.5-0.2 0.3-0.5 0.5-1.1 1-2.1 1.9-0.6 0.5-1.3 1-0.6 0.5-1.3 1-0.6 0.4-1.3 0.9-0.7 0.4-1.4 0.8-0.6 0.3-1.2 0.6-0.6 0.4-1.2 0.6-0.6 0.3-1.3 0.6-0.6 0.2-1.2 0.5l-3.6-4.3q0.7-0.2 1.4-0.4 0.6-0.1 1.3-0.4 0.7-0.2 1.4-0.5 0.6-0.3 1.2-0.6 0.8-0.4 1.5-0.8 0.7-0.4 1.4-0.8 0.6-0.5 1.3-0.9 0.6-0.5 1.3-1 0.3-0.3 0.6-0.6 0.3-0.3 0.6-0.5 0.3-0.3 0.6-0.6 0.3-0.3 0.5-0.6 0.2-0.2 0.4-0.4 0.1-0.2 0.3-0.4 0.1-0.2 0.3-0.5 0.1-0.2 0.2-0.4 0.1-0.2 0.1-0.3 0.1-0.1 0.1-0.3 0-0.1 0-0.3 0-0.1 0-0.3 0-0.1 0-0.2 0-0.1-0.1-0.2 0-0.1-0.1-0.2 0-0.1-0.1-0.1-0.1-0.1-0.2-0.2-0.1-0.1-0.2-0.2-0.2 0-0.3 0-0.1-0.1-0.3-0.1-0.2 0-0.4 0.1-0.2 0-0.4 0-0.2 0.1-0.4 0.1-0.1 0.1-0.3 0.2-0.3 0.1-0.5 0.2-0.3 0.1-0.5 0.2-0.3 0.1-0.5 0.2-0.3 0.1-0.5 0.3-1.1 0.5-2.3 1.2l-2.5 1.3q-1.2 0.6-2.5 1.2-0.3 0.1-0.6 0.2-0.3 0.1-0.7 0.2-0.3 0.2-0.6 0.3-0.3 0-0.6 0.1-0.3 0.1-0.6 0.2-0.3 0-0.6 0.1-0.3 0-0.6 0.1-0.3 0-0.6 0-0.3 0-0.6 0-0.2-0.1-0.5-0.1-0.3-0.1-0.6-0.2-0.2 0-0.5-0.1-0.3-0.2-0.5-0.3-0.3-0.2-0.5-0.4-0.3-0.1-0.5-0.4-0.2-0.2-0.4-0.4-0.2-0.3-0.4-0.5-0.2-0.3-0.4-0.6-0.1-0.3-0.3-0.7-0.1-0.3-0.2-0.6-0.1-0.3-0.1-0.6-0.1-0.3-0.1-0.6 0-0.3 0-0.6 0-0.3 0.1-0.6 0.1-0.3 0.1-0.6 0.1-0.3 0.2-0.6 0.1-0.3 0.2-0.6 0.2-0.3 0.3-0.6 0.2-0.3 0.3-0.6 0.2-0.3 0.4-0.6 0.2-0.2 0.4-0.5 0.2-0.3 0.4-0.6 0.2-0.2 0.4-0.5 0.3-0.2 0.5-0.5 0.2-0.2 0.5-0.5 0.2-0.2 0.5-0.5 1-1 2-1.7 1-0.9 2.2-1.7 1.2-0.8 2.4-1.5 1.3-0.8 2.5-1.4 1.2-0.6 2.3-1l3.5 4.2"/><path  d="m195.6 84.7l-6.3-7.5-12.3 10.4 6.3 7.5-4.9 4.1-15-18 4.8-4.1 5.5 6.6 12.3-10.4-5.5-6.5 4.9-4.1 15.1 18-4.9 4.1"/><path  d="m206.2 75.9l-15.1-18 4.9-4.1 15 18z"/><path  d="m233.6 52.8l-22.5-2.1 10.4 12.3-4.8 4.1-15.1-18 5.2-4.5 22.6 2.3-10.4-12.4 4.8-4.1 15.1 18-5.2 4.5"/><path  d="m240.7 15.5q0.6-0.5 1.2-1 0.7-0.5 1.3-0.9 0.7-0.5 1.4-0.9 0.7-0.5 1.4-0.8 0.6-0.4 1.2-0.7 0.6-0.3 1.3-0.6 0.6-0.3 1.3-0.6 0.6-0.2 1.3-0.5l3.7 4.4q-0.3 0.1-0.6 0.1-0.3 0.1-0.6 0.2-0.3 0-0.6 0.1-0.3 0.1-0.6 0.2-0.3 0.1-0.6 0.2-0.4 0.1-0.7 0.3-0.3 0.1-0.6 0.2-0.4 0.2-0.7 0.3-0.3 0.2-0.7 0.3-0.3 0.2-0.7 0.4-0.3 0.2-0.7 0.4-0.3 0.2-0.6 0.4-0.4 0.2-0.8 0.5-0.3 0.2-0.7 0.4-0.3 0.3-0.7 0.6-0.3 0.2-0.6 0.5-0.4 0.3-0.8 0.6-0.4 0.4-0.7 0.7-0.4 0.4-0.7 0.7-0.3 0.4-0.6 0.8-0.3 0.3-0.5 0.6-0.2 0.3-0.4 0.6-0.2 0.3-0.4 0.6-0.2 0.4-0.4 0.7-0.1 0.3-0.2 0.5-0.1 0.3-0.2 0.6-0.1 0.3-0.2 0.6 0 0.2-0.1 0.5 0 0.5 0 1 0 0.4 0.1 0.9 0.1 0.5 0.2 0.9 0.2 0.5 0.4 0.9 0.1 0.2 0.2 0.3 0.1 0.2 0.2 0.4 0.2 0.2 0.3 0.3 0.1 0.2 0.2 0.4 0.2 0.1 0.3 0.2 0.1 0.2 0.3 0.3 0.1 0.1 0.2 0.3 0.2 0.1 0.3 0.2 0.2 0.2 0.4 0.3 0.1 0.1 0.3 0.2 0.2 0.1 0.4 0.2 0.2 0.1 0.4 0.2 0.2 0.1 0.4 0.2 0.3 0.1 0.5 0.1 0.2 0.1 0.5 0.1 0.2 0.1 0.5 0.1 0.3 0 0.5 0 0.3 0 0.6 0 0.3 0 0.6 0 0.3-0.1 0.5-0.2 0.4-0.1 0.8-0.2 0.3-0.1 0.7-0.2 0.3-0.2 0.6-0.3 0.4-0.2 0.7-0.3 0.4-0.3 0.8-0.5 0.4-0.3 0.8-0.6 0.4-0.2 0.8-0.5 0.4-0.3 0.8-0.7 0.8-0.7 1.4-1.3 0.2-0.1 0.3-0.2 0.1-0.2 0.2-0.3 0.2-0.2 0.3-0.3 0.1-0.2 0.2-0.3 0.1-0.1 0.2-0.3 0.1-0.1 0.3-0.2 0.1-0.1 0.1-0.3 0.1-0.1 0.2-0.2l0.8-1.1-1.8-2.2-5.5 4.6-3.3-4 10.3-8.6 7.7 9.2q-0.2 0.3-0.4 0.6-0.2 0.3-0.4 0.6-0.2 0.3-0.4 0.6-0.2 0.3-0.4 0.6-1.1 1.3-2.2 2.5-1.1 1.3-2.3 2.5-1.2 1.1-2.3 2.1-0.4 0.3-0.8 0.7-0.5 0.3-0.9 0.7-0.5 0.3-0.9 0.6-0.5 0.3-1 0.6-0.4 0.3-0.8 0.5-0.5 0.3-0.9 0.5-0.5 0.2-1 0.4-0.4 0.2-0.9 0.4-0.4 0.2-0.9 0.3-0.4 0.2-0.9 0.3-0.5 0.1-0.9 0.2-0.5 0.1-0.9 0.1-0.5 0.1-0.9 0.1-0.5 0-0.9 0-0.4 0-0.9-0.1-0.4 0-0.8-0.1-0.5-0.1-0.9-0.3-0.4-0.1-0.8-0.3-0.4-0.1-0.8-0.3-0.4-0.2-0.8-0.5-0.4-0.2-0.8-0.5-0.4-0.3-0.8-0.7-0.4-0.3-0.7-0.7-0.4-0.3-0.7-0.7-0.3-0.4-0.6-0.8-0.3-0.4-0.6-0.9-0.3-0.4-0.5-0.8-0.2-0.5-0.4-1-0.2-0.4-0.3-0.8-0.1-0.4-0.2-0.9-0.1-0.4-0.1-0.9-0.1-0.4-0.1-0.9 0-0.4 0-0.9 0.1-0.4 0.1-0.8 0.1-0.5 0.2-0.9 0.1-0.5 0.2-0.9 0.2-0.4 0.3-0.9 0.2-0.4 0.4-0.8 0.2-0.5 0.4-0.9 0.2-0.4 0.5-0.8 0.2-0.4 0.5-0.9 0.3-0.4 0.6-0.8 0.3-0.4 0.6-0.8 0.3-0.4 0.7-0.8 0.4-0.4 0.7-0.8 0.4-0.4 0.8-0.7 0.4-0.4 0.8-0.8 0.4-0.3 0.8-0.7"/><path  d="m270.9 21.6l-15.1-18 4.9-4.1 11.8 14 13.1-11 3.3 3.9-18 15.1"/><path fill-rule="evenodd" d="m308.5-25.3q0.5 0.5 0.9 1.1 0.4 0.6 0.7 1.2 0.3 0.6 0.6 1.2 0.2 0.7 0.4 1.3 0.2 0.6 0.3 1.3 0 0.6 0 1.2 0 0.7 0 1.3-0.1 0.6-0.3 1.2-0.1 0.7-0.4 1.3-0.2 0.7-0.5 1.3-0.3 0.7-0.6 1.3-0.4 0.6-0.8 1.1-0.5 0.7-1 1.3-0.5 0.7-1.1 1.3-0.6 0.6-1.2 1.2-0.6 0.5-1.3 1.1-0.6 0.5-1.3 1-0.6 0.5-1.3 1-0.7 0.4-1.5 0.9-0.7 0.4-1.5 0.7-0.6 0.3-1.2 0.6-0.7 0.2-1.4 0.4-0.7 0.2-1.4 0.3-0.6 0.1-1.3 0.2-0.7 0-1.3 0-0.6-0.1-1.3-0.2-0.6-0.1-1.2-0.3-0.6-0.2-1.2-0.4-1.2-0.6-2.3-1.5-1.1-0.8-2-1.9-0.9-1-1.5-2.3-0.7-1.2-1.1-2.5-0.1-0.6-0.2-1.2-0.1-0.7-0.1-1.3 0-0.6 0.1-1.3 0.1-0.6 0.2-1.2 0.2-0.7 0.5-1.3 0.2-0.7 0.5-1.3 0.3-0.6 0.6-1.2 0.4-0.6 0.8-1.2 0.5-0.7 1-1.3 0.6-0.7 1.1-1.3 0.6-0.6 1.2-1.2 0.6-0.6 1.3-1.1 0.6-0.5 1.3-1 0.7-0.5 1.4-1 0.7-0.5 1.4-0.9 0.7-0.4 1.5-0.7 0.6-0.3 1.2-0.6 0.7-0.2 1.4-0.4 0.6-0.2 1.3-0.3 0.7-0.1 1.4-0.2 0.7 0 1.3 0 0.6 0.1 1.2 0.2 0.7 0.1 1.3 0.3 0.6 0.2 1.2 0.5 0.6 0.3 1.2 0.6 0.5 0.4 1.1 0.8 0.5 0.4 1 0.9 0.5 0.5 0.9 1zm-4.9 4.2q-0.2-0.3-0.4-0.5-0.3-0.3-0.5-0.5-0.3-0.2-0.5-0.4-0.3-0.2-0.6-0.4-0.3-0.2-0.6-0.3-0.3-0.2-0.7-0.3-0.3-0.1-0.6-0.1-0.4-0.1-0.7-0.1-0.5 0-0.9 0-0.4 0-0.8 0.1-0.4 0.1-0.8 0.2-0.5 0.1-0.9 0.3-0.5 0.2-1 0.5-0.6 0.2-1.1 0.5-0.5 0.4-0.9 0.7-0.5 0.4-1 0.8-0.3 0.2-0.6 0.5-0.3 0.3-0.6 0.6-0.3 0.3-0.6 0.6-0.3 0.3-0.5 0.7-0.2 0.2-0.4 0.5-0.2 0.3-0.4 0.5-0.2 0.3-0.3 0.6-0.2 0.3-0.3 0.6-0.1 0.3-0.2 0.5-0.1 0.3-0.2 0.5-0.1 0.3-0.1 0.6-0.1 0.2-0.1 0.5 0 0.2 0 0.5 0 0.2 0 0.5 0 0.2 0 0.4 0.1 0.3 0.1 0.5 0.1 0.2 0.1 0.4 0.1 0.3 0.2 0.5 0 0.2 0.1 0.4 0.1 0.2 0.2 0.4 0.1 0.2 0.3 0.4 0.1 0.2 0.2 0.3 0.1 0.2 0.3 0.4 0.1 0.2 0.2 0.3 0.2 0.2 0.3 0.4 0.2 0.1 0.3 0.3 0.2 0.1 0.4 0.3 0.1 0.1 0.3 0.3 0.2 0.1 0.4 0.2 0.1 0.2 0.3 0.3 0.2 0.1 0.4 0.2 0.2 0.1 0.5 0.2 0.2 0.1 0.4 0.1 0.2 0.1 0.5 0.2 0.2 0 0.4 0.1 0.3 0 0.5 0 0.3 0 0.6 0 0.2 0 0.5 0 0.3 0 0.5-0.1 0.3 0 0.6-0.1 0.3-0.1 0.6-0.2 0.3-0.1 0.6-0.2 0.3-0.2 0.6-0.3 0.3-0.1 0.6-0.3 0.4-0.2 0.7-0.4 0.4-0.3 0.7-0.5 0.4-0.2 0.7-0.5 0.4-0.3 0.7-0.5 0.4-0.4 0.9-0.8 0.4-0.4 0.8-0.9 0.4-0.4 0.8-0.9 0.3-0.5 0.7-1 0.2-0.3 0.4-0.7 0.2-0.4 0.3-0.8 0.1-0.4 0.2-0.8 0.1-0.4 0.2-0.8 0-0.4 0-0.7 0-0.4 0-0.7-0.1-0.4-0.1-0.7-0.1-0.3-0.3-0.7-0.1-0.3-0.2-0.6-0.2-0.3-0.4-0.6-0.1-0.3-0.3-0.5-0.2-0.3-0.4-0.6z"/><path  d="m316.7-48.2q0.6-0.6 1.2-1.1 0.7-0.4 1.3-0.9 0.7-0.5 1.4-0.9 0.7-0.4 1.4-0.8 0.6-0.3 1.2-0.7 0.7-0.3 1.3-0.6 0.7-0.3 1.3-0.5 0.7-0.3 1.3-0.5l3.7 4.4q-0.3 0-0.6 0.1-0.3 0-0.6 0.1-0.3 0.1-0.5 0.2-0.3 0.1-0.6 0.1-0.4 0.2-0.7 0.3-0.3 0.1-0.7 0.2-0.3 0.1-0.6 0.3-0.3 0.1-0.6 0.3-0.4 0.1-0.7 0.3-0.4 0.2-0.7 0.4-0.4 0.1-0.7 0.3-0.4 0.2-0.7 0.4-0.4 0.3-0.7 0.5-0.4 0.2-0.7 0.5-0.4 0.2-0.7 0.5-0.4 0.3-0.7 0.5-0.4 0.4-0.8 0.7-0.3 0.3-0.7 0.7-0.3 0.3-0.7 0.7-0.3 0.3-0.6 0.7-0.2 0.3-0.5 0.6-0.2 0.3-0.4 0.6-0.2 0.3-0.4 0.7-0.2 0.3-0.4 0.6-0.1 0.3-0.2 0.6-0.1 0.2-0.2 0.5-0.1 0.3-0.1 0.6-0.1 0.3-0.1 0.6-0.1 0.2-0.1 0.5 0 0.2 0 0.5 0 0.2 0.1 0.5 0 0.2 0 0.5 0.1 0.2 0.1 0.4 0.1 0.2 0.2 0.4 0 0.2 0.1 0.4 0.1 0.3 0.2 0.5 0.1 0.1 0.2 0.3 0.2 0.2 0.3 0.4 0.1 0.1 0.2 0.3 0.1 0.2 0.3 0.3 0.1 0.2 0.2 0.3 0.2 0.2 0.3 0.3 0.1 0.1 0.3 0.3 0.1 0.1 0.2 0.2 0.2 0.1 0.4 0.3 0.2 0.1 0.4 0.2 0.1 0.1 0.3 0.2 0.2 0.1 0.4 0.2 0.3 0.1 0.5 0.2 0.2 0.1 0.4 0.1 0.3 0.1 0.5 0.1 0.3 0.1 0.5 0.1 0.3 0 0.6 0 0.3 0 0.5 0 0.3 0 0.6-0.1 0.3 0 0.6-0.1 0.3-0.1 0.7-0.2 0.3-0.1 0.7-0.2 0.3-0.2 0.7-0.3 0.3-0.2 0.6-0.4 0.4-0.2 0.9-0.5 0.4-0.2 0.8-0.5 0.4-0.3 0.7-0.6 0.4-0.3 0.8-0.6 0.9-0.7 1.5-1.3 0.6-0.6 1-1.1 0.5-0.5 0.8-1.1l0.7-1.1-1.8-2.1-5.4 4.5-3.3-3.9 10.3-8.6 7.7 9.1q-0.2 0.4-0.4 0.7-0.2 0.3-0.4 0.6-0.2 0.3-0.4 0.6-0.3 0.3-0.5 0.6-1 1.2-2.1 2.5-1.1 1.3-2.3 2.4-1.2 1.2-2.3 2.2-0.4 0.3-0.9 0.7-0.4 0.3-0.9 0.6-0.4 0.4-0.9 0.7-0.4 0.3-0.9 0.6-0.4 0.3-0.9 0.5-0.4 0.2-0.9 0.5-0.4 0.2-0.9 0.4-0.5 0.2-0.9 0.4-0.5 0.2-0.9 0.3-0.5 0.2-0.9 0.3-0.5 0.1-0.9 0.2-0.5 0-1 0.1-0.4 0.1-0.8 0.1-0.5 0-0.9 0-0.4 0-0.9-0.1-0.4-0.1-0.9-0.1-0.4-0.1-0.8-0.3-0.4-0.1-0.8-0.3-0.5-0.1-0.9-0.3-0.4-0.2-0.7-0.5-0.5-0.2-0.9-0.5-0.4-0.4-0.7-0.7-0.4-0.3-0.8-0.7-0.3-0.4-0.6-0.7-0.4-0.4-0.7-0.8-0.3-0.4-0.5-0.9-0.3-0.4-0.5-0.9-0.2-0.4-0.4-0.9-0.2-0.4-0.3-0.8-0.2-0.5-0.3-0.9-0.1-0.4-0.1-0.9-0.1-0.4-0.1-0.9 0-0.4 0-0.9 0.1-0.4 0.1-0.9 0.1-0.4 0.2-0.9 0.1-0.4 0.2-0.8 0.2-0.5 0.3-0.9 0.2-0.4 0.4-0.9 0.2-0.4 0.4-0.8 0.2-0.4 0.5-0.8 0.2-0.5 0.5-0.9 0.3-0.4 0.6-0.8 0.3-0.4 0.6-0.8 0.4-0.4 0.7-0.8 0.4-0.4 0.7-0.8 0.4-0.4 0.8-0.8 0.4-0.4 0.8-0.7 0.4-0.4 0.8-0.7"/><path fill-rule="evenodd" d="m362.6-70.7q0.5 0.5 0.9 1.1 0.4 0.6 0.7 1.2 0.3 0.6 0.6 1.2 0.2 0.7 0.4 1.3 0.2 0.6 0.2 1.3 0.1 0.6 0.1 1.2 0 0.7-0.1 1.3 0 0.6-0.2 1.2-0.1 0.7-0.4 1.4-0.2 0.6-0.5 1.2-0.3 0.7-0.7 1.3-0.3 0.6-0.7 1.1-0.5 0.7-1 1.4-0.6 0.6-1.1 1.2-0.6 0.6-1.2 1.2-0.6 0.6-1.3 1.1-0.6 0.5-1.3 1-0.7 0.5-1.4 1-0.7 0.5-1.4 0.9-0.7 0.4-1.5 0.8-0.6 0.3-1.3 0.5-0.6 0.2-1.3 0.4-0.7 0.2-1.4 0.3-0.7 0.1-1.4 0.2-0.6 0-1.2 0-0.7 0-1.3-0.2-0.6-0.1-1.2-0.3-0.6-0.1-1.2-0.4-0.6-0.3-1.2-0.7-0.6-0.3-1.1-0.7-0.6-0.5-1.1-0.9-0.5-0.5-0.9-1.1-0.5-0.5-0.8-1.1-0.4-0.5-0.8-1.1-0.3-0.6-0.5-1.3-0.3-0.6-0.5-1.3-0.1-0.6-0.2-1.2-0.1-0.6-0.1-1.3 0-0.6 0.1-1.2 0.1-0.7 0.2-1.3 0.2-0.7 0.4-1.3 0.3-0.7 0.6-1.3 0.3-0.6 0.6-1.2 0.4-0.6 0.8-1.2 1-1.3 2.1-2.6 1.2-1.2 2.5-2.3 1.2-1 2.6-2 1.4-0.9 2.9-1.6 0.7-0.3 1.3-0.6 0.7-0.2 1.4-0.4 0.6-0.2 1.3-0.3 0.7-0.1 1.4-0.1 0.6-0.1 1.3 0 0.6 0 1.2 0.1 0.6 0.1 1.3 0.3 0.6 0.2 1.1 0.5 0.7 0.3 1.2 0.6 0.6 0.4 1.2 0.8 0.5 0.4 1 0.9 0.5 0.5 0.9 1.1m-4.9 4.1q-0.2-0.3-0.4-0.5-0.3-0.3-0.5-0.5-0.3-0.2-0.5-0.4-0.3-0.2-0.6-0.3-0.3-0.2-0.6-0.4-0.3-0.1-0.7-0.2-0.3-0.2-0.7-0.2-0.3-0.1-0.6-0.1-0.5 0-0.9 0-0.4 0-0.8 0.1-0.5 0.1-0.9 0.2-0.4 0.1-0.8 0.3-0.5 0.2-1 0.5-0.6 0.2-1.1 0.6-0.5 0.3-0.9 0.6-0.5 0.4-1 0.8-0.3 0.3-0.6 0.5-0.3 0.3-0.6 0.6-0.3 0.3-0.6 0.6-0.3 0.4-0.5 0.7-0.3 0.2-0.4 0.5-0.2 0.3-0.4 0.6-0.2 0.2-0.3 0.5-0.2 0.3-0.3 0.6-0.2 0.3-0.2 0.5-0.1 0.3-0.2 0.6-0.1 0.2-0.1 0.5-0.1 0.3-0.1 0.5 0 0.3 0 0.5 0 0.2 0 0.5 0 0.2 0 0.5 0 0.2 0.1 0.4 0 0.3 0.1 0.5 0.1 0.2 0.1 0.4 0.1 0.2 0.2 0.4 0.1 0.2 0.2 0.4 0.1 0.2 0.2 0.4 0.2 0.2 0.3 0.4 0.1 0.1 0.2 0.3 0.2 0.2 0.3 0.4 0.2 0.1 0.3 0.3 0.2 0.2 0.3 0.3 0.2 0.2 0.3 0.3 0.2 0.2 0.4 0.3 0.2 0.1 0.3 0.3 0.2 0.1 0.4 0.2 0.2 0.1 0.4 0.2 0.2 0.1 0.5 0.2 0.2 0.1 0.4 0.2 0.2 0 0.5 0.1 0.2 0 0.4 0.1 0.3 0 0.5 0 0.3 0 0.5 0 0.3 0 0.6 0 0.2 0 0.5-0.1 0.3 0 0.6-0.1 0.3-0.1 0.6-0.2 0.3-0.1 0.6-0.2 0.3-0.1 0.6-0.3 0.3-0.1 0.6-0.3 0.4-0.2 0.7-0.4 0.4-0.2 0.7-0.5 0.4-0.2 0.7-0.5 0.3-0.2 0.7-0.5 0.4-0.4 0.9-0.8 0.4-0.4 0.8-0.9 0.4-0.4 0.8-0.9 0.3-0.4 0.7-0.9 0.2-0.4 0.4-0.8 0.1-0.4 0.3-0.8 0.1-0.4 0.2-0.8 0.1-0.4 0.2-0.8 0-0.4 0-0.7 0-0.4 0-0.7-0.1-0.3-0.2-0.7 0-0.3-0.2-0.6-0.1-0.4-0.3-0.7-0.1-0.3-0.3-0.6-0.1-0.2-0.3-0.5-0.2-0.3-0.4-0.5z"/></g></svg>