<svg version="1.2" xmlns="http://www.w3.org/2000/svg" viewBox="0 0 412 134" width="412" height="134">
	<title>image (1)-svg</title>
	<style>
		.s0 { fill: #ff0000 } 
		.s1 { fill: #62b5e5 } 
	</style>
	<g id="Layer">
		<g id="Layer">
			<g id="Layer">
				<path id="Layer" class="s0" d="m121 35.3c0 7.3 12.8 9.3 18.3 9.3v10.1h-1c-9.2 0.2-25-5.3-25.2-16.5v16.5h-10v-40.1h10v13.9l0.3-0.3 14-13.6h12.6l-12.5 12.4c-2.1 2.1-4.2 4.2-6.3 6.4-0.1 0.6-0.2 1.2-0.2 1.9z"/>
				<path id="Layer" class="s0" d="m148.8 25.8c-3.6 0-6.4-2.8-6.4-6.4 0-3.5 2.8-6.4 6.4-6.4 3.5 0 6.3 2.9 6.3 6.4 0 3.6-2.8 6.4-6.3 6.4zm-5 28.8v-26.6h10v26.6z"/>
				<path id="Layer" class="s0" d="m195.4 33.5v21.2h-9.9v-21.2c0-5-3.7-9.9-9-9.9-5.3 0-9 4.9-9 9.9v21.2h-9.9v-21.2c0-10.5 8-19.9 18.9-19.9 10.8 0 18.9 9.4 18.9 19.9z"/>
				<path id="Layer" class="s0" d="m218.2 14.4h8.6c6.4 0 11.6 5.3 11.6 11.7v1.8c0 6.5-5.2 11.7-11.6 11.7h-13.3v-10h13.3c0.9 0 1.6-0.8 1.6-1.7 0-1.2 0.3-3.5-1.6-3.5h-8.6c-5.5 0-9.6 4.8-9.6 10.2 0 5.3 4.1 10 9.6 10h18.9v10.1h-18.9c-11 0-19.7-9.3-19.7-20.1 0-10.9 8.7-20.2 19.7-20.2z"/>
				<path id="Layer" class="s0" d="m262.5 20.6v10h-7.1l3.6 10.5c0.8 2.2 1.7 3.6 4.2 3.6h6.3v10h-6.3c-5.9 0-11.6-4.8-13.5-10.3l-10.4-29.8h10.5l2.1 6z"/>
				<path id="Layer" class="s0" d="m278.3 25.8c-3.5 0-6.4-2.8-6.4-6.4 0-3.5 2.9-6.4 6.4-6.4 3.6 0 6.4 2.9 6.4 6.4 0 3.6-2.8 6.4-6.4 6.4zm-5 28.8v-26.6h10v26.6z"/>
				<path id="Layer" class="s1" d="m305.6 14.6h14v10.1h-14c-4.9 0-9 4.5-9 10 0 5.5 4.1 9.9 9 9.9h14v10.1h-14c-10.5 0-19-9-19-20 0-11.1 8.5-20.1 19-20.1z"/>
				<path id="Layer" class="s1" d="m113.6 116h-10.5l10.4-29.8c1.9-5.5 7.5-10.2 13.5-10.2h6.3v9.9h-6.3c-2.5 0-3.4 1.4-4.2 3.7z"/>
				<path id="Layer" class="s1" d="m154.4 75.8h8.6c6.4 0 11.6 5.2 11.6 11.6v1.8c0 6.5-5.2 11.7-11.6 11.7h-13.3v-10h13.3c0.9 0 1.6-0.8 1.6-1.7 0-1.2 0.4-3.4-1.6-3.4h-8.6c-5.5 0-9.6 4.7-9.6 10.1 0 5.3 4.1 10 9.6 10h18.9v10.1h-18.9c-11 0-19.6-9.2-19.6-20.1 0-10.9 8.6-20.1 19.6-20.1z"/>
				<path id="Layer" class="s1" d="m196.3 76h14v10h-14c-5 0-9 4.5-9 10 0 5.5 4 9.9 9 9.9h14v10.1h-14c-10.5 0-19.1-9-19.1-20 0-11.1 8.6-20 19.1-20z"/>
				<path id="Layer" class="s1" d="m224.6 116h-10.6l10.4-29.8c1.9-5.5 7.6-10.2 13.6-10.2h6.3v9.9h-6.3c-2.5 0-3.5 1.4-4.3 3.7z"/>
				<path id="Layer" class="s1" d="m275.4 97.1v-20.9h9.9v20.9c0 10.5-8.1 19.9-18.9 19.9-10.8 0-18.9-9.4-18.9-19.9v-20.9h9.9v20.9c0 5 3.7 9.9 9 9.9 5.3 0 9-4.9 9-9.9z"/>
				<path id="Layer" class="s1" d="m294.1 87.2c-3.6 0-6.4-2.9-6.4-6.4 0-3.6 2.8-6.4 6.4-6.4 3.5 0 6.4 2.8 6.4 6.4 0 3.5-2.9 6.4-6.4 6.4zm-5 28.7v-26.5h10v26.5z"/>
				<path id="Layer" class="s1" d="m326.1 81.9v10.1h-7.2l3.7 10.4c0.8 2.2 1.7 3.7 4.2 3.7h6.3v9.9h-6.3c-6 0-11.6-4.7-13.5-10.2l-10.4-29.8h10.5l2.1 5.9z"/>
				<path id="Layer" class="s1" d="m353.6 75.8h8.6c6.4 0 11.7 5.2 11.7 11.6v1.8c0 6.5-5.3 11.7-11.7 11.7h-13.3v-10h13.3c0.9 0 1.7-0.8 1.7-1.7 0-1.2 0.3-3.4-1.7-3.4h-8.6c-5.4 0-9.5 4.7-9.5 10.1 0 5.3 4.1 10 9.5 10h18.9v10.1h-18.9c-11 0-19.6-9.2-19.6-20.1 0-10.9 8.6-20.1 19.6-20.1z"/>
				<path id="Layer" class="s1" d="m385.8 116h-10.5l10.4-29.8c1.9-5.5 7.6-10.2 13.5-10.2h6.4v9.9h-6.4c-2.4 0-3.4 1.4-4.2 3.7z"/>
			</g>
			<g id="Layer">
				<path id="k" class="s0" d="m54.8 102.3q5.2-5.2 13.7-15 0.4-0.4 0.7-0.4 0.2 0 0.2 0.5 0 2.4-1.8 4.6-9.2 10.2-16.3 17-0.6 0.6-2.3 2.3-1.7 1.6-2.7 2.6-0.9 0.9-2.6 2.5-1.6 1.5-2.7 2.4-1.1 0.8-2.5 1.8-1.2 0.9-2.3 1.4-1 0.4-1.8 0.4-2.2 0-2.2-4.1 0-4.5 1.9-11.4 2-7 3.9-11.7l1.9-4.7q0.1-0.3 0.1-0.5 0-0.2-0.2-0.2l-0.8 0.2q-4.7 4.7-9.8 10.7-4.9 5.8-7.5 9.3l-2.6 3.4q-2.5 3.9-5.9 6.7-3.2 2.9-4.9 2.9-1.3 0-1.3-1.6 0-2.4 2.3-7.5 2.2-5.1 4.4-9l2.3-4 18.1-32.4q24.4-43.4 35.6-57.5 3.7-4.8 5.2-4.8 0.6 0 0.6 1 0 2.7-4 10.6-19.4 35.2-27 48.8-14.8 26.4-17.7 31.3v0.5q0 0.4 0.2 0.4 0.3 0 0.7-0.5l5.9-6.3q5.9-6.3 10.8-11.2 4.8-4.8 10.8-9.4 5.9-4.7 8.8-4.7 1.9 0 1.9 3 0 1.7-1.2 5.3-1.2 3.6-2.5 3.6-0.5 0-0.8-1.2-0.7-3.1-3.6-3.1-4.3 0-7.9 8-3.6 7.9-5 15.5-1.5 7.5-1.5 10.1 0 2.7 1.3 2.7 1.2 0 2.9-1.4 1.8-1.5 4.2-3.9 2.5-2.5 3-3z"/>
			</g>
			<path id="Layer" class="s1" d="m82.2 118v-104h2.7v104z"/>
		</g>
	</g>
</svg>