<svg version="1.2" xmlns="http://www.w3.org/2000/svg" viewBox="0 0 386 128" width="386" height="128">
	<title>image</title>
	<style>
		.s0 { fill: #ff771d } 
		.s1 { fill: #62b5e5 } 
	</style>
	<g id="Layer">
		<g id="Layer">
			<g id="Layer">
				<path id="Layer" class="s0" d="m122.3 27.2q2.2-1.1 6.9-1.1 4.3 0 6.3 1 0.4 0.2 0.4 7.9v8l-0.1 15.6q-2.3 0-6.8 0.1-4.6 0.1-6.9 0.1v-15.8q0-15.7 0.2-15.8zm-9.4-23.8q0-0.4 16.2-0.4h16.1v13.7h-9.3v3.6q0 3.7-0.1 3.7-0.4 0-2.3-0.5-2-0.3-4-0.3-3.9 0-6.1 0.6l-1.3 0.3v-7.4q-1.6 0-4.6-0.1-3.1 0-4.6 0l-0.1-6.4q0-6.7 0.1-6.8z"/>
				<path id="Layer" class="s0" d="m176 3.2q0.1-0.2 6.4-0.2l6.4 0.1 10.6 27.5q10.6 27.7 10.6 27.8 0 0.1-7.1 0.1h-7.2l-3-7.8q-9.9-26.1-10.2-26.3-0.1-0.1-1.1 2.3-1 2.4-2 4.9-1 2.5-1 2.8 0 0 2.5 0h2.5l3 7.9q2.8 7.5 2.8 8 0 0.1-0.6-0.1-0.5-0.2-1.3-0.5-2-0.9-5.2-0.9-1.5 0-2.7 0.3-3 0.6-5.6 2.6-2.5 2-3.9 4.8l-0.9 2.1h-7.3q-7.1 0-7.1-0.1 0.8-2 1.7-4.4 1.2-3.2 10.6-27.6z"/>
				<path id="Layer" class="s0" d="m235.7 46.8l-0.2-1.8h11.4v13.2h-6.4l-1.2-1.6q-3.1-4.4-3.6-9.8zm-16.9 11.4v-55.5h13.9q0.1 7.7 0.1 23.3 0 15.5 0.1 23.3l0.7 2.2q1.1 3.1 3.4 6.7z"/>
				<path id="Layer" class="s0" d="m279.3 24q1.3-0.3 2.6-0.3h1.1v12.5l-2.1 0.4q-6.6 1-10 6.4-1.1 1.7-1.1 1.7 0 0.2 9.1 0.2h9.1v13.5h-32.4v-4.6q0-6.8 1.4-11.1 1.3-4.3 4.6-8.4 6.9-8.7 17.7-10.3zm-23.7-4.2v-17h32.4v13.4h-18.7v7.4l-2.4 1.4q-6.3 3.6-9.9 9.9l-1.3 2q-0.1 0-0.1-17.1z"/>
				<path id="Layer" fill-rule="evenodd" class="s0" d="m296.7 4.8l-0.1-2.6h14v4.3q0 4.2 0.8 6.6 1.6 4.6 4.1 8.3 1.1 1.6 3.3 4 2.2 2.4 3.8 3.6 1.1 0.8 3.1 2.1 2.1 1.3 2.5 1.3 0.2 0 0.2-15.1v-15.1h13.3l0.2 4.3q0.2 4.8 0.2 27.8v23.4h-13.7v-11.3l-1.8-0.5q-5.3-2-10.6-5.8-2.1-1.5-5.2-4.5-3.1-2.9-4.7-5.1-8.3-11.1-9.4-25.7zm0.1 16.3q0.2-0.4 0.5 0.2 0 0.2 0.1 0.4 0.4 1.2 2.2 4.5 3.4 6.6 8.4 11.6l2.5 2.4q0 2.9 0 8.8 0 5.8 0.1 8.7h-13.9v-18.1q0-18 0.1-18.5z"/>
				<path id="Layer" class="s0" d="m360.5 27.2q2.3-1.1 6.9-1.1 4.3 0 6.3 1 0.5 0.2 0.5 7.9v8l-0.1 15.6q-2.3 0-6.9 0.1-4.6 0.1-6.9 0.1v-15.8q0-15.7 0.2-15.8zm-9.4-23.8q0.1-0.4 16.3-0.4h16.1v13.7h-9.3v3.6q0 3.7-0.2 3.7-0.3 0-2.2-0.5-2.1-0.3-4.1-0.3-3.8 0-6.1 0.6l-1.3 0.3v-7.4q-1.6 0-4.6-0.1-3.1 0-4.6 0l-0.1-6.4q0-6.7 0.1-6.8z"/>
				<path id="Layer" class="s1" d="m112.9 113.6q10.9-6.5 10.9-6.5 0.3 0 1.2 1.7 3.1 5.2 9.2 8.4 4 2 9.5 2.2l3.7 0.3-1.2 1.5q-3.2 4.3-9.2 6-1.5 0.4-5.2 0.4-5.3 0-9.4-2.1-1.8-0.9-4.2-3.3-2.4-2.4-3.7-4.7-1.7-2.9-1.7-3.6 0-0.3 0.1-0.3zm3.7-31.8q1.4-0.2 3-0.2 3 0 4.7 0.3 1.6 0.4 3.2 1.1 1.7 0.7 1.7 1 0 0.1 0 0.1l-0.1 0.1q0 0.8 2 2.7 1.9 1.9 7.8 7 5.2 4.4 7.3 7.2 2.1 2.8 2.9 6.3 0.4 1.7 0.4 3.9 0 2.4-0.4 3.8-0.3 1-1 1.2-0.8 0.2-4 0.2-4.8 0-8.4-1.8l-1.3-0.7 0.8-0.7q0.8-0.9 0.8-1.7 0-1.3-1.2-2.8-1.2-1.4-4.5-4.1-7-5.8-10-9.2-4.7-5.5-4.7-11 0-1.6 0.1-2.1 0.2-0.5 0.9-0.6zm12.5-12.1q1-0.2 2.1-0.2 0.2 0 0.8 0 0.5 0.1 0.7 0.1 4.3 0.3 7.9 2.4 3.6 2.1 7.5 6.5l1.3 1.5-4.4 3.9q-4.4 3.7-5.1 4.5l-0.7 0.6-1.6-2q-3.1-4-7.8-6.1-4.6-2.2-9.9-2.2-3 0-3-0.3 0-0.3 1.2-2 1.3-1.6 2.3-2.6 3.9-3.4 8.7-4.1z"/>
				<path id="Layer" class="s1" d="m168.2 96.2q2.2-1.1 6.9-1.1 4.3 0 6.3 1.1 0.4 0.1 0.4 7.8v8 15.7q-2.3 0-6.9 0.1-4.6 0-6.9 0v-15.7q0-15.8 0.2-15.9zm-9.4-23.8q0-0.3 16.2-0.3h16.1v13.7h-9.3v3.5q0 3.7-0.1 3.7-0.4 0-2.2-0.4-2.1-0.4-4.1-0.4-3.9 0-6.1 0.6l-1.3 0.4v-7.4q-1.6 0-4.6-0.1-3.1-0.1-4.6-0.1l-0.1-6.4q0-6.6 0.1-6.8z"/>
				<path id="Layer" class="s1" d="m221.9 72.2q0.1-0.1 6.4-0.1h6.4l10.6 27.5q10.6 27.7 10.6 27.8 0 0.2-7.1 0.2h-7.2l-2.9-7.8q-10-26.1-10.3-26.4-0.1-0.1-1.1 2.3-1 2.4-2 4.9-1 2.5-1 2.8 0 0.1 2.5 0.1h2.5l3 7.8q2.8 7.5 2.8 8 0 0.1-0.6-0.1-0.5-0.1-1.3-0.5-2-0.8-5.2-0.8-1.5 0-2.7 0.2-3 0.6-5.6 2.6-2.5 2-3.9 4.8l-0.9 2.2h-7.2q-7.2 0-7.2-0.1 0.8-2.1 1.7-4.4 1.2-3.3 10.6-27.6z"/>
				<path id="Layer" fill-rule="evenodd" class="s1" d="m278 73.5q7.2-4.7 16.8-4.7 5.6 0 11 1.8 6.4 2.2 11.9 7.7l2.1 2.2q-1.6 1.6-4.9 4.8-3.3 3.2-4.9 4.8l-1.4-1.5q-6.2-6.2-14-6.2-6.6 0-11.3 4.6-4.5 4.6-4.5 11 0 6.8 4.8 11.3 4.8 4.5 12 4.5h3.9l1.7 1.7q3.7 3.7 4.5 8.8l0.1 1-1.7 0.6q-3.9 1.2-8.3 1.2h-1.9q-12.2-0.4-20.3-8.4-8.6-8.6-8.6-21 0-3.9 1-7.8 1.3-4.9 4.6-9.3 3.3-4.4 7.4-7.1zm15.2 22.1q0.1-0.1 0.7-0.1 4.1 0 9.2 1.8 4.8 1.9 8.8 5.6 4 3.7 6.4 8.4 0.9 1.9 0.9 2.1 0 1.4-4.1 5.5-1.6 1.6-3.8 3.2-2.2 1.7-2.8 1.7-0.3 0-0.3-0.9 0-3-2.1-6.6-2.3-4-6.3-6.1-3.2-1.7-6.2-1.7h-0.8v-6.5q0-6.4 0.4-6.4z"/>
			</g>
			<g id="Layer">
				<path id="Layer" class="s0" d="m37.4 2.2c-4.6 12.1-7 29.3-7.6 46.2 6.1-0.3 12.3-1.7 17.1-4.5v19c-4.8-2.8-11.1-4.2-17.3-4.5 0 0.3 0 0.5 0 0.8 0 15.2-1.3 50.6 23 50.6 2.4 0 4.7-0.2 7.4-0.8v15.2c-6.7 2.3-14.1 3.6-21.1 3.6-11.1 0-21.2-3.3-25.8-11.3-6.4-10.9-2.7-29.9-1.7-56.1-2.3 0.8-4.3 1.7-5.8 2.5v-19c1.5 1 3.6 1.8 6.1 2.5 0-18.4-2.3-31.6-7.2-44.2z"/>
			</g>
			<path id="Layer" class="s1" d="m81.1 127.8v-125.6h2.4v125.6z"/>
		</g>
	</g>
	<g id="Layer" style="opacity: 0">
	</g>
</svg>